<svg id="Group_182" data-name="Group 182" xmlns="http://www.w3.org/2000/svg" xmlns:xlink="http://www.w3.org/1999/xlink" width="193.881" height="56.412" viewBox="0 0 193.881 56.412">
  <defs>
    <clipPath id="clip-path">
      <rect id="Rectangle_1110" data-name="Rectangle 1110" width="193.881" height="56.412" fill="none"/>
    </clipPath>
  </defs>
  <path id="Path_352" data-name="Path 352" d="M293.865,109.424v.332h-2.477v8.783h-.369v-8.783h-2.477v-.332Z" transform="translate(-171.168 -64.912)" fill="#443741"/>
  <g id="Group_180" data-name="Group 180">
    <g id="Group_179" data-name="Group 179" clip-path="url(#clip-path)">
      <path id="Path_353" data-name="Path 353" d="M307.12,118.531a3.054,3.054,0,0,0-3.068-2.821,3.015,3.015,0,0,0-3.079,2.821Zm-6.16.32a3.06,3.06,0,0,0,3.092,3.068,2.982,2.982,0,0,0,2.784-1.725h.383a3.46,3.46,0,0,1-6.617-1.379v.013a3.439,3.439,0,0,1,6.875-.161l-.012.185Z" transform="translate(-178.321 -68.45)" fill="#443741"/>
      <path id="Path_354" data-name="Path 354" d="M326.331,120.021a3.452,3.452,0,0,1-6.676-1.207v.012a3.446,3.446,0,0,1,6.689-1.157h-.382a2.973,2.973,0,0,0-2.857-1.959,3.044,3.044,0,0,0-2.206.875,3.1,3.1,0,0,0-.9,2.229,3.042,3.042,0,0,0,3.092,3.1,2.974,2.974,0,0,0,2.858-1.9Z" transform="translate(-189.623 -68.45)" fill="#443741"/>
      <path id="Path_355" data-name="Path 355" d="M339.868,113.267h.025a2.78,2.78,0,0,1,2.623-1.416,3.1,3.1,0,0,1,2.044.654,3.217,3.217,0,0,1,.949,2.587v3.448h-.345v-3.448a2.935,2.935,0,0,0-.8-2.3,2.71,2.71,0,0,0-1.848-.616,2.436,2.436,0,0,0-2.648,2.612v3.756h-.346v-9.115h.346Z" transform="translate(-201.409 -64.912)" fill="#443741"/>
      <path id="Path_356" data-name="Path 356" d="M359.252,116.8h.024a2.782,2.782,0,0,1,2.623-1.416,3.1,3.1,0,0,1,2.045.654,3.219,3.219,0,0,1,.949,2.587v3.448h-.345v-3.448a2.929,2.929,0,0,0-.8-2.3,2.709,2.709,0,0,0-1.848-.616,2.436,2.436,0,0,0-2.647,2.612v3.756h-.346v-6.529h.346Z" transform="translate(-212.908 -68.449)" fill="#443741"/>
      <path id="Path_357" data-name="Path 357" d="M380.639,121.918a3.1,3.1,0,1,0-3.092-3.1,3.027,3.027,0,0,0,3.092,3.1m0-6.529a3.424,3.424,0,1,1-3.435,3.425,3.359,3.359,0,0,1,3.435-3.425" transform="translate(-223.762 -68.45)" fill="#443741"/>
      <rect id="Rectangle_1109" data-name="Rectangle 1109" width="0.345" height="9.115" transform="translate(161.794 44.512)" fill="#443741"/>
      <path id="Path_358" data-name="Path 358" d="M405.6,121.918a3.1,3.1,0,1,0-3.091-3.1,3.029,3.029,0,0,0,3.091,3.1m0-6.529a3.424,3.424,0,1,1-3.436,3.425,3.359,3.359,0,0,1,3.436-3.425" transform="translate(-238.566 -68.45)" fill="#443741"/>
      <path id="Path_359" data-name="Path 359" d="M425.013,115.71a3.1,3.1,0,1,0,3.094,3.1,3.036,3.036,0,0,0-3.094-3.1m-2.734,7.144a3.315,3.315,0,0,0,.851,1.01,3.154,3.154,0,0,0,1.921.679,3.055,3.055,0,0,0,3.018-3.129v-.96h-.037a3.239,3.239,0,0,1-3.019,1.786,3.425,3.425,0,1,1,0-6.849,3.241,3.241,0,0,1,3.032,1.823h.024V115.55h.346v5.8a3.387,3.387,0,0,1-3.314,3.51,3.5,3.5,0,0,1-3.215-2.008Z" transform="translate(-250.063 -68.451)" fill="#443741"/>
      <path id="Path_360" data-name="Path 360" d="M443.135,118.539h.345v-6.529h-.345Zm0-7.994h.345v-1.121h-.345Z" transform="translate(-262.873 -64.912)" fill="#443741"/>
      <path id="Path_361" data-name="Path 361" d="M453.8,118.531a3.054,3.054,0,0,0-3.066-2.821,3.018,3.018,0,0,0-3.081,2.821Zm-6.158.32a3.058,3.058,0,0,0,3.092,3.068,2.983,2.983,0,0,0,2.784-1.725h.381a3.459,3.459,0,0,1-6.615-1.379v.013a3.439,3.439,0,0,1,6.873-.161l-.012.185Z" transform="translate(-265.335 -68.45)" fill="#443741"/>
      <path id="Path_362" data-name="Path 362" d="M466.886,120.267a1.562,1.562,0,0,0,1.665,1.651,1.513,1.513,0,0,0,1.564-1.589c-.025-.9-.519-1.331-1.577-1.564-.986-.284-1.725-.567-1.762-1.688a1.646,1.646,0,0,1,1.775-1.688,1.615,1.615,0,0,1,1.723,1.7h-.344a1.276,1.276,0,0,0-1.379-1.379,1.316,1.316,0,0,0-1.43,1.367c.037.788.5,1.084,1.43,1.342.863.234,1.834.469,1.908,1.861a1.862,1.862,0,0,1-1.908,1.959,1.9,1.9,0,0,1-2.009-1.971Z" transform="translate(-276.756 -68.45)" fill="#443741"/>
      <path id="Path_363" data-name="Path 363" d="M90.477,23.97a14.88,14.88,0,0,0-10.942-5.149A15.153,15.153,0,0,0,64.7,33.831a14.2,14.2,0,0,0,4.368,10.078,15.826,15.826,0,0,0,10.467,4.5,15.519,15.519,0,0,0,10.942-4.977v2.856a16.962,16.962,0,0,1-10.855,4.065c-9.083,0-17-7.57-17-16.7a17.02,17.02,0,0,1,17.04-16.781,16.18,16.18,0,0,1,10.814,4.236Z" transform="translate(-37.149 -10.012)" fill="#443741"/>
      <path id="Path_364" data-name="Path 364" d="M165.293,17.936h2.074V38.264c0,3.333,0,6.188-2.2,8.909a12.225,12.225,0,0,1-17.734,0c-2.206-2.721-2.206-5.577-2.206-8.909V17.936H147.3V37.659c0,2.941,0,6.054,1.687,8.216,1.6,2.077,4.8,3.161,7.307,3.161s5.71-1.084,7.312-3.161c1.687-2.162,1.687-5.276,1.687-8.216Z" transform="translate(-86.148 -10.64)" fill="#443741"/>
      <path id="Path_365" data-name="Path 365" d="M218.207,48.6h8.3v1.945H216.13V17.935h2.077Z" transform="translate(-128.211 -10.64)" fill="#443741"/>
      <path id="Path_366" data-name="Path 366" d="M250.262,50.548h-2.076V19.884h-8.434V17.936H258.7v1.948h-8.434Z" transform="translate(-142.224 -10.64)" fill="#443741"/>
      <path id="Path_367" data-name="Path 367" d="M314.884,17.936h2.075V38.264c0,3.333,0,6.188-2.2,8.909a12.224,12.224,0,0,1-17.733,0c-2.209-2.721-2.209-5.577-2.209-8.909V17.936h2.079V37.659c0,2.941,0,6.054,1.686,8.216,1.6,2.077,4.8,3.161,7.309,3.161s5.71-1.084,7.31-3.161c1.687-2.162,1.687-5.276,1.687-8.216Z" transform="translate(-174.887 -10.64)" fill="#443741"/>
      <path id="Path_368" data-name="Path 368" d="M370.445,33.163c2.032,0,4.064-.087,5.709-1.516a6.524,6.524,0,0,0,2.292-5.146,6.229,6.229,0,0,0-3.46-5.882c-1.733-.822-3.938-.735-5.839-.735h-1.34V33.163Zm11.419,17.385h-2.379l-10.642-15.44h-1.035v15.44h-2.077V17.936h4.064c2.637,0,5.233.042,7.438,1.645a8.188,8.188,0,0,1,3.29,7.008c0,5.665-3.938,8.606-9.343,8.52Z" transform="translate(-216.956 -10.64)" fill="#443741"/>
      <path id="Path_369" data-name="Path 369" d="M423.189,20.559l-6.4,15.744h12.76Zm-7.181,17.69-4.366,10.725h-2.121l13.667-33.691,13.625,33.691h-2.121l-4.367-10.725Z" transform="translate(-242.934 -9.066)" fill="#443741"/>
      <path id="Path_370" data-name="Path 370" d="M31.825,9.134a12.365,12.365,0,0,1-.733-2.455c-.491-2.182-.823-5.622-.823-5.622a44.531,44.531,0,0,1,1.433,4.7,14.975,14.975,0,0,1,.413,3.337c.073-.013.144-.027.216-.048a3.226,3.226,0,0,0,2.092-3.775C33.954,3.107,30.029,0,30.029,0s-2.477,3.714-1.823,6.129c.584,2.157,2.182,3.127,3.618,3" transform="translate(-16.667)" fill="#00a08e"/>
      <path id="Path_371" data-name="Path 371" d="M10.653,50.694a8.339,8.339,0,0,1-2.061-2.407A63.39,63.39,0,0,0,0,50.338s4.354,10.38,10.336,12.367c5,1.664,9.062.013,10.994-2.816-.886-1.062-2.068-2.754-7.508-4.859-4.408-1.7-12.191-4.081-12.191-4.081a110.09,110.09,0,0,1,12.35,2.829,24.685,24.685,0,0,1,8.276,4.181,7.5,7.5,0,0,0-1.542-6.871c-2.29,2.057-6.259,2.483-10.062-.393" transform="translate(0 -28.644)" fill="#8bc53f"/>
      <path id="Path_372" data-name="Path 372" d="M26.388,24.787c0-.027-.005-.053-.008-.079-4.564-1.931-12.4-2.017-12.4-2.017s.446,6.3,2.9,10.413c3.145-.5,6.455-.673,8.606.166A8.99,8.99,0,0,1,29.007,35.9c.1-.088.194-.179.287-.272a27.126,27.126,0,0,0-5.211-5.493c-3.182-2.468-8.7-6.35-8.7-6.35a109.511,109.511,0,0,1,9.718,5.9c3.98,2.831,4.792,4.346,4.885,4.518l.092.172.072.138a6.417,6.417,0,0,0,.477-5.218c-1.9-.072-3.83-1.6-4.235-4.516" transform="translate(-8.293 -13.46)" fill="#008752"/>
      <path id="Path_373" data-name="Path 373" d="M29.723,47.843c-2.151-.838-5.46-.662-8.605-.165a8.357,8.357,0,0,0,2.061,2.407c3.8,2.876,7.772,2.451,10.063.393a9,9,0,0,0-3.519-2.636" transform="translate(-12.527 -28.035)" fill="#00703c"/>
      <path id="Path_374" data-name="Path 374" d="M52.677,16.552c-.251-2.9-4.852-7.6-4.852-7.6s-3.779,4.358-3.4,7.605a7.968,7.968,0,0,1,2.008,1.165,7.66,7.66,0,0,1,2.235,3.431,3.9,3.9,0,0,0,.654-.029c.05-.007.1-.022.146-.03l-.216-.212-.088-.089c-.088-.088-.862-.872-1.262-3.3a23.907,23.907,0,0,1-.087-5.391s.376,3.118.847,5.124A10.816,10.816,0,0,0,50.36,20.8a4.426,4.426,0,0,0,2.317-4.251" transform="translate(-26.339 -5.311)" fill="#81cdc0"/>
      <path id="Path_375" data-name="Path 375" d="M46.473,28.813a7.935,7.935,0,0,0-2.008-1.164c0,.026,0,.052.008.079.4,2.917,2.339,4.445,4.236,4.517a7.668,7.668,0,0,0-2.236-3.432" transform="translate(-26.377 -16.402)" fill="#00703c"/>
    </g>
  </g>
</svg>
